<?xml version="1.0" standalone="no"?>
<!DOCTYPE svg PUBLIC "-//W3C//DTD SVG 20010904//EN"
 "http://www.w3.org/TR/2001/REC-SVG-20010904/DTD/svg10.dtd">
<svg version="1.0" xmlns="http://www.w3.org/2000/svg"
 width="640.000000pt" height="640.000000pt" viewBox="0 0 640.000000 640.000000"
 preserveAspectRatio="xMidYMid meet">
<metadata>
Created by potrace 1.11, written by Peter Selinger 2001-2013
</metadata>
<g transform="translate(0.000000,640.000000) scale(0.100000,-0.100000)"
fill="#000000" stroke="none">
<path d="M5320 5748 c-67 -29 -100 -42 -295 -123 -115 -48 -214 -90 -220 -93
-5 -4 -18 -8 -29 -9 -10 -2 -30 -10 -45 -18 -14 -8 -105 -46 -201 -85 -96 -39
-186 -77 -200 -84 -14 -8 -29 -14 -33 -14 -15 -1 -162 -65 -184 -81 -29 -21
-63 -89 -63 -127 0 -27 20 -86 67 -194 27 -63 32 -74 79 -190 25 -63 54 -133
64 -155 10 -22 40 -96 68 -165 28 -69 65 -156 82 -195 17 -38 32 -72 32 -75 0
-3 4 -14 9 -25 26 -61 150 -362 206 -500 36 -88 73 -178 83 -200 10 -22 33
-76 50 -120 17 -44 40 -99 51 -122 10 -23 19 -45 19 -48 0 -3 9 -25 19 -48 10
-23 26 -60 35 -82 27 -64 75 -103 135 -110 30 -3 115 21 147 42 13 8 25 14 28
14 9 -1 36 9 94 35 29 13 54 24 56 24 2 0 21 8 42 17 22 9 44 18 49 19 11 3
477 198 558 233 26 11 47 18 47 14 0 -3 6 -1 13 5 6 5 59 29 117 52 124 51
161 76 184 125 17 35 20 100 5 120 -4 6 -8 15 -9 20 -1 6 -8 26 -16 45 -9 19
-45 107 -81 195 -113 274 -193 468 -213 515 -72 170 -87 209 -82 214 3 3 0 6
-6 6 -7 0 -12 7 -12 15 0 8 -4 23 -10 33 -5 9 -21 46 -36 82 -14 36 -31 76
-37 90 -6 14 -11 27 -12 30 -8 24 -18 48 -25 61 -5 9 -32 74 -60 145 -53 130
-65 161 -93 224 -8 19 -38 91 -66 160 -123 297 -131 311 -198 329 -47 13 -80
13 -113 -1z"/>
<path d="M3684 4780 c-65 -32 -245 -119 -399 -195 -420 -206 -544 -265 -555
-265 -5 0 -10 -4 -10 -10 0 -5 -4 -10 -10 -10 -8 0 -94 -41 -725 -350 -121
-59 -328 -160 -460 -225 -132 -64 -317 -155 -411 -201 -94 -46 -176 -84 -182
-84 -6 0 -12 -3 -14 -8 -3 -8 -174 -92 -187 -92 -4 0 -19 -13 -33 -29 -69 -77
-72 -127 -13 -256 7 -16 23 -53 34 -82 l20 -51 -112 -47 c-160 -68 -161 -68
-175 -71 -7 -1 -23 -9 -35 -17 -12 -8 -37 -18 -55 -21 -17 -4 -34 -12 -37 -17
-4 -5 -15 -9 -26 -9 -10 0 -19 -5 -19 -12 0 -6 -3 -9 -6 -6 -3 4 -24 -2 -47
-12 -23 -10 -60 -26 -82 -36 -22 -9 -43 -18 -46 -18 -20 -3 -73 -55 -86 -86
-22 -52 -11 -102 57 -263 33 -78 60 -148 60 -155 0 -7 3 -12 8 -12 4 0 12 -17
19 -37 6 -21 22 -60 34 -88 13 -27 22 -53 21 -57 -3 -12 70 -78 92 -84 59 -15
94 -9 181 29 49 21 95 40 100 41 6 2 21 8 35 13 357 149 442 184 444 181 2 -2
22 -50 45 -108 62 -153 85 -177 183 -194 17 -3 120 28 290 86 145 49 274 93
288 98 14 4 158 54 320 110 162 56 300 103 305 104 6 1 36 12 69 24 32 13 62
21 67 20 4 -2 -98 -320 -227 -708 -130 -388 -238 -714 -240 -725 -15 -57 -5
-102 33 -148 35 -45 79 -57 209 -57 107 0 121 2 159 25 48 28 62 52 105 186
17 52 33 101 37 109 3 8 7 20 8 25 2 8 190 574 230 693 3 7 5 16 6 20 1 4 19
57 41 117 21 61 40 117 42 125 2 8 7 26 11 40 l6 26 147 -1 148 0 94 -285 c52
-157 97 -292 101 -300 4 -8 58 -170 120 -358 120 -362 128 -380 196 -408 42
-18 251 -19 290 -1 59 26 99 91 96 157 -1 14 -36 129 -78 255 -43 127 -78 235
-80 240 -1 6 -5 17 -8 25 -9 22 -157 461 -163 485 -8 32 -11 39 -17 55 -7 18
-115 343 -127 382 -6 19 -5 32 4 40 15 17 68 105 85 143 33 76 52 150 57 230
3 32 6 60 7 61 1 0 90 31 197 67 291 99 451 155 458 161 3 3 -8 36 -24 73 -16
38 -29 70 -29 73 -1 3 -9 22 -18 44 -9 21 -17 40 -17 42 0 2 -9 26 -21 52 -36
80 -38 85 -73 169 -18 45 -31 84 -28 87 3 4 0 6 -6 6 -7 0 -12 7 -12 15 0 8
-9 34 -19 57 -26 58 -35 80 -136 323 -47 116 -92 224 -100 240 -7 17 -28 66
-45 110 -17 44 -38 94 -45 110 -8 17 -41 98 -75 180 -34 83 -77 184 -94 227
l-32 76 -120 -58z m-407 -1836 c59 -19 117 -70 141 -124 19 -43 24 -132 10
-174 -17 -48 -69 -116 -95 -122 -13 -4 -23 -10 -23 -15 0 -14 -68 -28 -123
-25 -134 8 -222 101 -222 237 0 76 22 127 73 174 66 60 149 77 239 49z"/>
</g>
</svg>
